<?xml version="1.0" standalone="no"?>
<!DOCTYPE svg PUBLIC "-//W3C//DTD SVG 20010904//EN"
 "http://www.w3.org/TR/2001/REC-SVG-20010904/DTD/svg10.dtd">
<svg version="1.0" xmlns="http://www.w3.org/2000/svg"
 width="2224.000000pt" height="2224.000000pt" viewBox="0 0 2224.000000 2224.000000"
 preserveAspectRatio="xMidYMid meet">

<g transform="translate(0.000000,2224.000000) scale(0.100000,-0.100000)"
fill="#000000" stroke="none">
<path d="M10890 20863 c-974 -22 -2012 -203 -2880 -503 -47 -16 -125 -43 -175
-60 -49 -17 -117 -42 -150 -55 -33 -13 -125 -49 -205 -81 -231 -91 -472 -200
-751 -339 -144 -73 -229 -118 -464 -250 -141 -78 -367 -220 -674 -424 -20 -13
-67 -47 -106 -75 -38 -29 -122 -90 -185 -136 -222 -163 -528 -415 -734 -604
-233 -215 -358 -338 -520 -511 -66 -71 -134 -143 -151 -160 -44 -45 -316 -362
-359 -419 -20 -26 -62 -80 -94 -120 -84 -104 -278 -368 -365 -496 -146 -214
-367 -566 -419 -665 -21 -40 -163 -301 -189 -345 -30 -54 -177 -357 -237 -490
-11 -25 -34 -76 -52 -115 -69 -153 -226 -562 -296 -770 -133 -401 -214 -696
-293 -1067 -320 -1499 -284 -3090 103 -4548 162 -614 342 -1102 639 -1735 71
-152 272 -538 297 -570 4 -5 22 -36 39 -68 85 -157 385 -623 517 -804 182
-247 232 -313 381 -497 51 -63 289 -340 358 -415 83 -92 544 -550 640 -637
312 -282 701 -592 998 -796 237 -162 692 -448 713 -448 3 0 18 -8 32 -19 15
-10 68 -40 117 -66 50 -26 95 -51 100 -55 13 -10 329 -168 435 -218 171 -80
379 -171 520 -226 80 -32 172 -68 205 -81 246 -99 749 -254 1099 -340 786
-192 1502 -278 2336 -278 614 0 1128 44 1698 144 459 80 1020 222 1402 355 41
15 113 40 160 56 438 152 1001 404 1420 636 283 157 400 227 609 364 73 48
137 88 142 88 5 0 9 3 9 8 0 4 8 12 19 17 22 12 161 107 211 145 19 15 87 64
150 111 63 46 151 113 195 148 225 182 294 238 336 275 25 23 77 68 114 101
283 249 698 671 931 945 170 199 433 534 526 670 10 14 33 48 53 75 54 76 280
416 299 450 9 17 41 71 72 120 54 87 109 180 162 275 13 25 28 50 32 55 4 6
57 107 118 225 258 504 435 926 607 1445 144 435 265 931 350 1430 25 153 79
573 89 700 3 39 11 129 18 200 18 179 18 1231 0 1410 -7 72 -15 162 -18 200
-10 127 -64 547 -89 700 -148 872 -393 1671 -752 2455 -84 183 -279 569 -345
685 -161 280 -219 374 -397 643 -154 234 -149 227 -333 472 -373 498 -821 985
-1303 1416 -131 117 -188 167 -234 204 -24 19 -85 68 -134 109 -49 41 -162
128 -251 195 -179 135 -167 126 -297 215 -52 35 -95 68 -97 73 -2 4 -10 8 -18
8 -8 0 -14 5 -14 10 0 6 -4 10 -8 10 -4 0 -65 37 -135 83 -590 383 -1126 654
-1862 942 -174 68 -500 175 -765 251 -261 75 -708 179 -890 208 -19 3 -71 12
-115 20 -221 42 -560 84 -885 111 -187 15 -725 37 -835 33 -33 -1 -112 -3
-175 -5z m992 -904 c37 -20 258 -201 258 -211 0 -5 5 -6 11 -2 8 4 8 0 0 -15
-7 -11 -17 -21 -23 -21 -7 0 -53 15 -103 34 -49 19 -132 50 -183 68 -90 32
-162 77 -162 102 0 61 121 88 202 45z m138 -360 l183 -120 -28 -28 -27 -29
-167 86 -168 86 -164 -66 -164 -66 -22 27 c-13 14 -22 31 -20 36 4 13 356 194
378 195 9 0 99 -54 199 -121z m-60 -254 c346 -92 547 -352 486 -627 -39 -173
-135 -293 -298 -372 -136 -65 -217 -80 -402 -73 -258 9 -416 73 -563 226 -92
96 -145 268 -125 408 31 223 207 386 483 448 87 20 330 14 419 -10z m-1426
-61 c107 -28 183 -81 211 -149 21 -48 18 -132 -4 -181 -36 -79 -162 -174 -263
-199 -16 -4 -28 -10 -28 -14 0 -4 51 -57 113 -119 63 -62 113 -112 112 -112
-2 0 29 -31 69 -69 70 -67 120 -101 151 -101 9 0 15 -9 15 -25 0 -20 -5 -25
-26 -25 -14 0 -91 -5 -169 -11 l-144 -11 -183 182 c-250 249 -223 231 -333
214 -137 -22 -129 -16 -121 -88 3 -33 15 -113 26 -176 20 -123 36 -150 86
-150 19 0 24 -5 24 -24 0 -23 -6 -25 -122 -46 -68 -12 -159 -30 -203 -40 -44
-10 -83 -16 -87 -14 -16 10 -7 37 22 64 20 19 30 38 30 57 0 26 -39 249 -110
637 -40 216 -50 236 -117 236 -20 0 -24 4 -21 22 4 26 16 30 303 82 222 40
266 47 510 80 52 7 197 -4 259 -20z m2513 -107 c106 -23 200 -49 210 -58 36
-32 184 -200 293 -333 30 -37 67 -81 83 -99 15 -18 55 -69 89 -114 54 -72 78
-96 78 -78 0 3 12 44 26 92 76 259 77 273 33 314 -31 29 -34 59 -6 59 8 0 72
-21 143 -46 71 -25 149 -52 174 -61 55 -19 54 -17 41 -41 -7 -13 -18 -18 -34
-15 -49 9 -75 -30 -124 -187 -148 -475 -193 -630 -193 -659 0 -14 12 -38 27
-53 22 -23 25 -32 16 -46 -13 -20 -5 -22 -178 39 -77 27 -145 52 -152 54 -6 2
-9 13 -6 23 3 14 17 22 44 26 32 5 42 12 54 39 19 44 55 163 55 183 0 24 -243
326 -418 519 -145 160 -215 235 -222 235 -4 0 -12 -28 -18 -62 -6 -35 -20
-110 -31 -168 -105 -551 -101 -522 -75 -558 8 -12 22 -22 30 -22 10 0 14 -8
12 -22 -4 -30 -23 -29 -206 8 -139 28 -143 30 -140 53 2 19 11 27 36 33 24 7
37 18 47 41 15 36 136 748 138 815 2 36 -3 48 -25 67 -15 12 -32 25 -38 27
-19 6 1 38 24 38 11 0 107 -19 213 -43z m-4517 -304 c0 -9 -12 -30 -27 -45
-19 -20 -27 -38 -26 -61 1 -28 59 -230 149 -522 14 -44 38 -121 53 -172 36
-120 52 -143 96 -143 25 0 35 -5 40 -21 4 -11 5 -22 3 -24 -1 -2 -66 -27 -143
-55 -77 -29 -164 -63 -194 -76 -29 -13 -55 -24 -56 -24 -2 0 -5 10 -8 22 -4
15 2 29 18 46 33 33 32 68 -6 177 -17 50 -76 221 -130 380 -107 316 -120 339
-183 333 -25 -2 -32 1 -34 18 -3 18 15 27 135 74 76 30 170 66 208 81 82 33
105 35 105 12z m-1232 -88 c39 -45 27 -96 -47 -208 -49 -75 -61 -101 -61 -133
0 -37 -4 -42 -40 -63 l-40 -22 -20 43 c-27 59 -26 67 18 129 83 120 93 155 54
187 -68 54 -271 -73 -272 -170 0 -17 -14 -31 -54 -55 -30 -17 -57 -29 -60 -25
-14 14 -4 62 22 103 53 82 172 172 301 226 80 34 164 28 199 -12z m7652 -265
c279 -79 595 -330 683 -542 15 -37 15 -37 -11 -42 -15 -3 -52 -8 -82 -11 -30
-3 -79 -11 -108 -16 -47 -10 -55 -9 -68 8 -35 44 -35 51 -7 65 42 20 51 57 25
106 -30 57 -57 87 -132 141 -189 138 -390 175 -545 101 -109 -52 -172 -150
-182 -283 -13 -170 108 -377 306 -526 75 -56 169 -111 189 -111 6 0 18 20 28
45 9 25 21 45 27 45 6 0 8 3 4 6 -3 3 17 51 44 107 63 130 69 164 36 197 -19
20 -23 30 -16 48 10 27 -5 34 209 -94 196 -117 194 -115 186 -142 -6 -18 -11
-20 -32 -11 -50 18 -72 -5 -160 -171 -88 -164 -98 -204 -64 -235 22 -20 25
-36 9 -52 -13 -13 -79 19 -289 135 -145 81 -285 171 -365 235 -73 59 -238 229
-255 263 -8 16 -18 31 -21 34 -14 11 -68 130 -85 186 -10 34 -17 93 -18 139 0
212 130 351 374 399 57 11 247 -3 320 -24z m-7496 -276 c174 -119 455 -328
599 -446 106 -86 142 -106 172 -94 13 5 35 -20 35 -39 0 -3 -34 -22 -77 -41
-42 -19 -134 -64 -205 -99 -70 -36 -130 -65 -132 -65 -2 0 -6 9 -9 20 -3 12 5
30 23 49 40 41 31 62 -59 127 -42 30 -84 62 -94 70 -11 9 -33 24 -49 34 -30
18 -31 18 -67 -4 -20 -12 -65 -38 -101 -58 -137 -74 -300 -174 -313 -192 -12
-16 3 -298 16 -315 8 -9 25 -12 54 -8 35 4 45 1 54 -14 8 -16 -4 -28 -98 -90
-60 -39 -128 -86 -153 -104 -66 -47 -68 -48 -80 -25 -8 16 -6 26 11 49 21 29
21 34 23 587 2 377 6 568 14 585 7 17 39 43 94 74 46 26 101 58 123 71 22 13
48 23 59 24 10 0 82 -43 160 -96z m-992 -550 c26 -43 47 -82 48 -86 0 -4 -18
-19 -41 -34 -37 -23 -42 -24 -58 -10 -25 23 -78 20 -120 -6 -43 -27 -227 -173
-236 -189 -6 -8 71 -135 123 -204 4 -5 72 -107 151 -225 179 -268 181 -270
229 -259 30 7 39 5 50 -9 15 -19 25 -8 -153 -162 -177 -154 -165 -145 -182
-127 -14 14 -14 17 1 38 21 31 20 67 -3 104 -44 72 -453 630 -462 630 -19 0
-231 -209 -251 -248 -17 -34 -19 -48 -11 -78 9 -33 7 -39 -24 -73 -37 -40 -50
-44 -60 -20 -3 9 -17 28 -31 43 -13 14 -37 42 -52 62 l-29 35 107 105 c253
247 543 499 797 692 77 59 144 105 150 104 5 -2 30 -39 57 -83z m10152 -256
c67 -55 197 -170 264 -233 29 -27 58 -51 63 -53 5 -2 4 -12 -2 -23 -10 -19
-12 -19 -34 -5 -60 39 -72 19 -105 -176 -28 -163 -89 -469 -115 -582 -8 -33
-12 -62 -10 -64 2 -3 78 24 167 58 90 35 242 90 338 122 96 33 185 66 198 74
26 17 28 43 7 83 -12 24 -12 31 -1 40 14 12 9 18 210 -213 79 -90 97 -122 80
-139 -4 -4 -19 2 -34 13 -17 12 -44 20 -68 20 -67 0 -547 -152 -821 -260 -70
-27 -131 -50 -137 -50 -5 0 -55 47 -111 103 l-101 103 14 69 c30 140 75 395
104 585 57 379 62 457 36 512 -16 33 -15 58 1 58 3 0 28 -19 57 -42z m-5024
-248 c646 -51 1408 -234 1965 -473 44 -19 105 -45 135 -58 61 -25 412 -202
475 -239 22 -13 69 -40 105 -60 76 -43 141 -81 155 -92 6 -4 79 -53 164 -109
85 -56 162 -108 170 -115 9 -7 57 -43 106 -80 83 -62 233 -181 245 -194 3 -3
54 -48 113 -99 211 -182 530 -513 687 -711 19 -24 47 -58 61 -75 149 -175 405
-561 572 -860 58 -105 219 -433 242 -494 7 -20 36 -92 65 -161 69 -169 180
-501 230 -690 274 -1038 272 -2124 -4 -3144 -49 -179 -116 -387 -168 -527
l-33 -86 0 126 c0 112 -3 136 -29 213 -17 53 -51 124 -87 180 -108 173 -139
227 -173 306 -42 99 -74 225 -88 358 -7 57 -16 104 -21 104 -4 0 -13 -14 -19
-32 -20 -57 -108 -218 -150 -276 -46 -62 -82 -104 -143 -167 -22 -23 -55 -59
-74 -81 -19 -21 -57 -64 -85 -95 -45 -49 -238 -270 -295 -339 -21 -25 -21 -25
-34 -5 -6 11 -43 85 -80 165 -113 241 -194 510 -212 705 -13 145 38 463 117
735 25 84 31 125 32 205 l1 100 -355 -4 c-372 -3 -454 2 -777 49 -177 26 -548
99 -541 106 2 1 64 9 138 18 179 21 328 64 460 133 58 30 121 67 140 81 123
94 210 135 469 222 62 21 118 43 123 48 12 12 19 10 -202 43 -80 12 -239 41
-354 65 -115 24 -217 44 -227 44 -33 0 -28 16 17 51 25 18 50 39 57 44 7 6 34
26 61 45 48 33 53 34 160 36 129 2 213 24 316 84 63 36 69 37 190 44 129 6
195 17 212 34 7 7 -3 23 -29 49 -72 71 -96 125 -101 224 -4 81 -2 92 23 136
14 26 49 100 77 163 28 63 54 120 58 125 4 6 10 22 14 38 5 23 3 27 -14 27
-18 0 -20 6 -20 68 0 50 6 80 24 117 24 50 102 143 111 133 3 -3 0 -28 -6 -57
-6 -30 -9 -110 -7 -189 3 -117 7 -145 27 -190 43 -95 111 -120 169 -62 51 50
67 116 66 265 0 106 -6 151 -29 245 -77 317 -272 732 -491 1047 -190 273 -452
562 -713 787 -95 81 -374 295 -433 331 -9 6 -48 31 -87 58 -39 26 -86 55 -106
64 -19 9 -35 20 -35 25 0 4 -4 8 -8 8 -5 0 -62 30 -128 68 -139 78 -489 252
-509 252 -2 0 -29 11 -58 25 -154 70 -487 183 -737 249 -683 182 -1362 213
-2100 95 -69 -11 -133 -22 -142 -25 -12 -4 -34 18 -80 82 -166 227 -281 346
-480 494 l-116 86 131 32 c303 74 681 133 972 152 88 6 185 12 215 14 95 7
569 -3 710 -14z m-2094 -327 c204 -136 367 -285 464 -423 13 -19 28 -39 32
-45 5 -5 23 -30 42 -55 252 -341 324 -425 422 -491 106 -71 167 -142 196 -228
18 -57 38 -65 38 -17 0 36 -36 157 -80 266 l-22 55 28 -25 c15 -14 37 -34 48
-46 57 -56 161 -136 222 -169 168 -92 269 -168 413 -308 144 -142 253 -297
297 -419 l14 -39 -73 8 c-91 10 -393 10 -429 0 -58 -16 -23 -24 125 -30 285
-12 491 -75 694 -213 136 -93 239 -204 248 -268 4 -24 3 -52 -3 -61 -8 -15
-12 -12 -31 18 -22 37 -75 87 -91 87 -5 0 0 -30 11 -67 29 -100 35 -223 15
-302 -9 -36 -18 -66 -19 -67 -1 -1 -14 -5 -29 -9 -24 -6 -28 -4 -33 22 -22
100 -91 240 -102 206 -2 -6 3 -41 12 -78 16 -69 19 -125 9 -162 -6 -21 -11
-19 -87 40 -86 66 -132 121 -172 205 -14 28 -31 52 -38 52 -16 0 -48 -110 -55
-188 l-5 -64 -24 29 c-105 123 -196 263 -236 363 -39 98 -145 223 -230 273
-45 26 -127 51 -127 38 0 -4 12 -30 26 -59 14 -28 30 -80 35 -114 17 -119 18
-118 -68 -37 -85 79 -205 145 -279 153 -66 7 -72 -4 -35 -62 18 -28 39 -56 47
-63 8 -7 19 -20 24 -29 7 -14 0 -12 -37 7 -53 26 -113 31 -113 9 0 -8 4 -26 9
-39 l10 -25 -77 30 c-114 45 -166 57 -282 67 -70 6 -123 17 -159 32 -49 21
-52 24 -35 37 11 8 38 22 62 33 23 10 42 24 42 30 0 18 -81 4 -124 -22 -35
-20 -36 -20 -59 -2 -140 108 -160 118 -190 102 -8 -5 -21 -24 -27 -43 l-11
-34 -42 24 c-46 26 -72 30 -82 13 -4 -6 -11 -40 -15 -76 -5 -35 -11 -67 -13
-70 -10 -9 -127 27 -189 58 -138 70 -233 144 -498 388 -162 150 -277 270 -317
334 -18 28 -33 55 -33 60 0 4 13 16 30 25 35 20 37 40 15 127 -56 214 -180
434 -340 602 -39 40 -70 73 -69 73 8 0 107 -51 139 -71 22 -14 47 -28 55 -31
26 -10 172 -127 239 -191 35 -34 129 -138 209 -232 196 -230 347 -379 416
-411 53 -24 55 -26 117 -150 48 -95 63 -135 63 -165 -1 -32 2 -39 17 -39 49 0
25 128 -56 295 -45 93 -81 192 -73 200 2 3 22 -10 44 -29 65 -55 204 -141 289
-178 44 -20 175 -66 290 -103 290 -93 434 -153 547 -227 55 -37 108 -93 108
-116 0 -24 23 -21 112 14 55 21 119 38 156 41 42 4 62 10 62 19 0 7 -46 46
-102 86 -57 39 -129 94 -161 121 -32 27 -60 47 -64 44 -8 -9 33 -72 94 -147
29 -35 53 -67 53 -71 0 -4 -11 -10 -24 -13 -13 -3 -31 -8 -38 -11 -19 -8 -425
429 -637 685 -129 156 -167 214 -271 415 -40 77 -76 144 -81 149 -14 15 -11
42 7 57 21 17 13 81 -26 204 -41 127 -153 337 -267 503 -8 12 -11 22 -6 22 5
0 68 -39 139 -87z m-221 -74 c84 -124 185 -320 216 -417 20 -62 21 -77 11
-105 -7 -19 -12 -54 -12 -79 0 -45 -1 -47 -37 -58 -54 -17 -187 -67 -268 -102
-107 -46 -123 -53 -219 -97 l-90 -41 -60 67 c-128 145 -281 277 -420 362 -86
52 -205 111 -224 111 -35 0 8 25 238 140 155 78 294 141 430 195 148 60 354
133 361 129 3 -2 37 -49 74 -105z m-1302 -566 c105 -87 202 -191 269 -289 65
-96 133 -233 144 -288 6 -32 3 -36 -33 -55 -41 -23 -81 -51 -248 -174 -403
-297 -903 -782 -1137 -1102 -4 -5 -18 -23 -31 -40 -45 -56 -164 -240 -218
-335 -190 -335 -276 -617 -286 -937 -5 -155 -4 -173 11 -179 26 -10 66 12 131
73 84 77 134 113 160 113 37 0 36 -11 -9 -64 -57 -66 -102 -157 -122 -243 -69
-300 -94 -345 -347 -646 -99 -116 -129 -185 -135 -300 -4 -83 -3 -89 14 -85
10 2 42 37 71 79 51 75 125 148 233 232 69 53 145 154 198 260 l40 81 8 -70
c5 -38 9 -202 9 -364 0 -277 -1 -300 -23 -379 -33 -123 -149 -346 -314 -604
-162 -255 -226 -417 -199 -506 18 -61 47 -91 88 -91 87 0 169 104 217 277 20
68 72 188 96 220 17 22 18 19 24 -75 14 -202 55 -361 130 -511 37 -72 55 -127
82 -244 38 -169 58 -208 118 -232 50 -20 88 -12 121 26 68 82 93 328 46 459
-26 73 -42 230 -23 230 6 0 44 -38 84 -83 158 -181 254 -393 279 -615 11 -102
3 -217 -31 -442 -48 -326 -38 -396 63 -407 43 -5 49 -3 77 27 73 78 92 183 88
480 -3 197 -1 232 15 278 10 28 22 52 26 52 4 0 13 -12 20 -27 24 -53 181
-279 266 -383 136 -165 295 -330 419 -434 64 -54 136 -125 165 -163 100 -133
173 -306 221 -526 27 -122 69 -210 155 -326 5 -8 53 -58 105 -111 103 -105
181 -161 248 -181 37 -11 45 -10 59 4 69 69 -35 570 -174 839 -31 60 -62 104
-100 140 -31 29 -70 76 -88 104 -36 55 -89 173 -81 181 2 3 18 -8 34 -24 83
-78 142 -116 432 -281 371 -210 480 -298 557 -447 36 -69 82 -215 90 -285 5
-46 4 -49 -24 -63 -66 -35 -73 -113 -19 -222 54 -108 127 -177 247 -234 65
-30 109 -64 109 -81 0 -15 -38 -36 -135 -75 -83 -34 -141 -72 -201 -132 -23
-23 -61 -29 -97 -14 -11 4 -28 34 -43 80 -61 182 -200 298 -457 382 -121 39
-246 63 -290 55 -55 -10 -87 -55 -87 -121 0 -43 5 -60 27 -87 15 -18 33 -37
40 -41 7 -4 13 -12 13 -18 0 -5 -21 2 -47 18 -126 72 -237 181 -378 368 -155
208 -223 338 -360 685 -77 195 -122 267 -233 370 -73 69 -135 110 -147 98 -3
-3 6 -42 20 -87 89 -281 68 -488 -55 -551 -201 -103 -532 108 -626 400 -15 48
-18 99 -19 390 -1 328 -2 337 -26 420 -30 100 -45 130 -64 130 -18 0 -113
-106 -152 -172 -18 -29 -40 -84 -49 -123 -38 -156 -46 -178 -75 -208 -25 -25
-35 -29 -65 -24 -121 20 -263 199 -394 497 -45 101 -149 405 -158 464 -4 22
-14 42 -21 44 -12 4 -13 -14 -8 -104 9 -178 46 -361 118 -576 29 -88 139 -342
178 -411 78 -139 123 -215 178 -297 91 -137 87 -131 195 -275 40 -53 270 -318
333 -384 79 -83 311 -290 402 -360 26 -20 57 -44 68 -54 47 -43 482 -327 500
-327 4 0 19 -9 35 -20 30 -21 328 -172 425 -215 33 -15 116 -49 185 -77 69
-27 149 -59 178 -71 28 -11 52 -23 52 -26 0 -4 -5 -22 -10 -41 -6 -19 -14 -97
-19 -173 -8 -130 -10 -141 -37 -180 -17 -24 -65 -66 -111 -97 -109 -74 -139
-104 -162 -165 -15 -40 -41 -199 -41 -251 0 -11 -91 7 -167 32 -82 28 -130 30
-160 9 -30 -21 -63 -78 -63 -109 0 -14 -2 -26 -4 -26 -7 0 -170 87 -239 126
-32 19 -60 34 -62 34 -21 0 -425 269 -580 387 -307 233 -662 565 -895 839
-301 355 -593 803 -812 1249 -35 72 -71 148 -80 170 -9 22 -29 67 -43 100
-129 292 -253 654 -339 996 -116 458 -172 839 -196 1319 -28 557 58 1212 240
1844 89 308 272 767 410 1031 141 268 220 401 368 623 125 187 146 215 302
416 208 267 607 674 870 886 30 25 57 47 60 50 3 3 25 21 50 40 25 19 47 37
50 40 30 34 484 348 504 349 5 1 40 -25 79 -56z m-3262 -161 c-6 -11 -11 -38
-11 -59 0 -36 9 -47 197 -231 346 -339 383 -372 411 -372 14 0 34 7 44 16 14
14 20 14 33 4 21 -18 19 -25 -22 -78 -44 -55 -53 -68 -132 -179 -52 -74 -59
-80 -73 -67 -13 13 -14 22 -5 51 14 46 -5 82 -86 155 l-63 56 -128 -54 c-156
-65 -460 -215 -605 -299 -59 -34 -115 -64 -124 -68 -9 -3 -17 -11 -17 -16 0
-12 0 -12 130 -108 58 -43 110 -81 115 -86 6 -4 77 -58 160 -119 157 -117 185
-129 225 -93 14 13 25 16 39 9 17 -8 15 -16 -36 -104 -29 -52 -72 -131 -95
-175 -48 -95 -42 -88 -65 -81 -15 5 -17 14 -15 56 4 46 1 52 -30 81 -31 30
-341 251 -532 379 -49 33 -98 60 -109 60 -12 0 -33 -12 -48 -26 -31 -29 -66
-27 -55 4 11 29 187 354 222 408 31 50 36 53 275 171 134 66 301 144 372 173
70 30 127 57 127 61 0 9 -207 200 -243 223 -28 19 -59 15 -89 -12 -14 -12 -20
-12 -33 -2 -13 11 -9 21 32 79 26 36 51 68 55 69 4 2 8 8 8 13 0 6 5 15 10 22
6 7 40 52 76 101 59 78 68 86 81 73 12 -11 12 -19 4 -35z m13683 -136 c38 -16
70 -57 92 -118 14 -39 49 -407 39 -416 -2 -2 -12 -1 -22 2 -11 4 -26 30 -41
73 -13 38 -48 135 -78 218 -58 155 -71 228 -44 245 19 12 15 12 54 -4z m-205
-243 c12 -16 24 -32 29 -38 4 -5 40 -61 80 -123 l73 -113 -70 -207 c-38 -114
-88 -256 -111 -317 -23 -60 -49 -132 -59 -160 -20 -53 -115 -287 -151 -370
-17 -39 -20 -61 -15 -101 5 -43 3 -53 -11 -58 -9 -4 -18 -5 -20 -4 -1 2 -37
68 -80 148 -42 80 -87 161 -99 180 -12 19 -25 45 -29 58 -4 12 -11 22 -15 22
-4 0 -13 11 -19 24 -9 19 -8 27 4 37 12 10 20 7 42 -14 56 -54 71 -38 138 159
l48 139 -124 190 c-68 105 -141 213 -162 241 l-38 51 -131 -22 c-71 -13 -136
-29 -144 -35 -18 -15 -19 -43 -3 -87 10 -28 10 -36 -3 -49 -14 -13 -27 1 -130
136 -63 83 -120 159 -126 169 -11 14 -10 21 1 36 13 18 14 18 41 -3 36 -28 48
-28 218 7 206 42 488 88 672 110 88 10 163 19 167 20 4 1 16 -11 27 -26z
m-8300 -1077 c18 -17 58 -61 88 -98 29 -38 79 -92 109 -121 l56 -54 -70 -6
c-73 -7 -122 -21 -122 -34 0 -5 28 -23 63 -42 44 -24 92 -65 167 -143 l105
-110 -47 -48 c-73 -72 -69 -77 67 -72 115 5 138 -2 92 -27 -12 -7 -35 -32 -51
-56 -15 -25 -30 -45 -32 -45 -3 0 -21 7 -42 17 -26 11 -65 16 -132 16 -98 -1
-131 -9 -275 -74 -101 -45 -333 -71 -437 -50 -32 7 -58 16 -58 20 0 5 9 20 21
35 45 58 -4 84 -88 46 -54 -24 -186 -39 -197 -22 -6 10 31 41 78 68 33 18 29
33 -11 39 -92 16 -115 27 -166 78 -50 50 -120 137 -161 202 -11 16 -23 34 -28
40 -5 5 -32 46 -60 90 -64 100 -174 210 -259 258 l-64 37 60 0 c44 0 92 -11
190 -44 302 -103 552 -112 760 -25 66 27 94 33 158 33 l78 1 -6 33 c-3 18 -9
40 -12 49 -8 20 25 11 85 -23 l42 -25 0 24 c0 14 3 38 6 55 6 29 8 30 33 19
14 -6 41 -25 60 -41z m2383 -106 c25 -34 31 -36 52 -14 15 14 18 13 31 -18 36
-88 43 -242 13 -324 -10 -29 -14 -31 -48 -27 -49 7 -113 -26 -130 -66 -10 -26
-18 -31 -47 -31 -29 0 -34 3 -28 18 10 27 25 123 25 167 0 30 3 36 12 27 24
-24 38 -11 59 59 14 47 22 101 23 155 1 46 4 84 8 84 4 0 17 -13 30 -30z
m-4606 -201 c131 -194 346 -330 621 -393 125 -29 215 -41 403 -56 159 -13 251
-26 285 -42 l25 -11 -40 -43 c-71 -77 -49 -128 61 -141 69 -7 91 -18 58 -28
-47 -13 -159 -70 -159 -81 0 -6 47 -15 113 -22 122 -13 226 -38 300 -71 50
-23 192 -50 267 -51 l45 -1 -35 -18 c-19 -10 -68 -29 -107 -42 -40 -13 -73
-26 -73 -31 0 -25 213 -20 324 9 73 18 141 40 181 58 103 46 260 87 322 83
l44 -3 -38 -19 c-89 -46 -193 -130 -193 -157 0 -3 42 5 93 18 133 36 318 42
447 15 105 -22 271 -81 277 -98 2 -5 -18 -16 -45 -22 -58 -15 -247 -106 -326
-156 -31 -20 -60 -36 -64 -36 -12 -1 -52 -37 -52 -48 0 -20 259 -58 430 -62
14 -1 -35 -16 -107 -35 -385 -98 -608 -207 -808 -394 -138 -129 -234 -198
-352 -252 -73 -33 -239 -99 -250 -99 -5 0 -89 -26 -188 -59 -181 -59 -352
-134 -478 -211 -38 -23 -71 -39 -74 -37 -2 3 17 38 43 79 84 128 242 267 342
299 153 49 572 305 572 349 0 4 -46 -7 -102 -23 -101 -31 -107 -31 -323 -32
-202 0 -232 2 -370 29 -156 30 -287 62 -562 139 -175 49 -391 92 -517 103 -88
8 -86 13 22 46 95 29 395 36 577 14 194 -24 497 -18 612 10 56 14 14 22 -94
17 -138 -6 -295 9 -443 42 -346 77 -619 263 -815 555 -48 72 -107 182 -101
188 3 3 82 -31 224 -95 18 -8 86 -32 150 -55 248 -85 497 -126 679 -114 103 7
123 12 123 31 0 14 -16 19 -125 35 -38 6 -113 22 -165 37 -388 106 -599 336
-700 762 -27 110 -50 256 -50 306 1 39 1 39 36 -40 20 -44 55 -110 80 -146z
m3534 129 c0 -4 6 -13 14 -21 8 -7 39 -61 70 -118 86 -159 231 -342 291 -370
13 -6 2 -7 -35 -3 -65 6 -174 40 -321 99 -59 24 -131 48 -160 54 -63 13 -379
20 -379 9 0 -4 14 -18 31 -30 17 -13 51 -57 77 -98 67 -109 89 -136 141 -173
68 -50 144 -67 294 -67 70 0 127 -4 127 -9 0 -55 -244 -24 -449 58 -120 47
-211 64 -323 60 -97 -4 -98 -1 -21 52 24 17 43 34 43 38 0 14 -81 33 -162 39
-43 2 -75 9 -72 14 3 4 23 17 45 28 39 20 53 50 23 50 -33 0 -234 155 -234
181 0 3 51 -8 113 -26 61 -18 133 -36 160 -39 41 -6 47 -5 47 10 0 32 -94 110
-183 152 -109 52 -187 103 -221 143 -31 37 -28 46 11 31 28 -11 94 -26 248
-57 129 -26 233 -83 342 -185 23 -22 47 -40 52 -40 6 0 1 25 -11 57 -11 32
-24 72 -29 90 l-7 33 53 -47 c29 -27 90 -68 135 -91 77 -41 82 -43 75 -20 -4
12 -16 32 -26 44 -11 11 -19 23 -19 26 0 3 -16 32 -35 64 -19 32 -35 63 -35
70 0 7 33 -21 74 -61 71 -70 240 -205 257 -205 9 0 5 12 -34 105 -22 52 -47
178 -47 233 0 11 14 1 40 -28 21 -25 39 -48 40 -52z m7809 -238 l77 -175 -8
-120 c-13 -198 -37 -448 -64 -659 -13 -109 -23 -201 -20 -203 5 -5 113 41 233
98 75 36 83 42 89 74 3 20 4 47 1 60 -3 18 1 29 13 35 20 11 18 15 93 -230 69
-226 74 -245 70 -252 -10 -17 -33 -6 -48 22 -24 47 -48 55 -108 35 -58 -19
-508 -202 -604 -245 -71 -33 -97 -65 -91 -115 3 -28 0 -36 -15 -41 -10 -3 -20
-4 -21 -2 -1 1 -24 75 -50 163 -26 88 -54 184 -63 213 -14 46 -14 55 -2 62 9
6 23 -2 46 -26 28 -31 36 -35 63 -29 25 5 157 60 167 69 4 4 42 328 57 486 13
139 22 263 41 574 l6 98 -58 -33 c-32 -18 -125 -73 -206 -121 -81 -48 -152
-88 -156 -88 -5 0 -11 -4 -13 -8 -1 -5 -41 -30 -86 -58 -46 -27 -88 -57 -94
-68 -5 -10 -8 -38 -6 -62 3 -36 0 -45 -15 -50 -10 -3 -20 -4 -22 -2 -2 1 -19
41 -38 88 -20 47 -58 132 -85 190 -45 94 -48 105 -34 117 14 10 21 8 40 -13
47 -50 52 -47 396 173 45 28 129 82 189 119 154 96 160 103 155 170 -4 43 -1
57 11 64 18 11 34 -19 160 -310z m-15688 -249 c-37 -47 -95 -123 -128 -168
l-61 -81 -11 -158 c-6 -86 -11 -185 -11 -220 0 -60 -1 -64 -35 -90 -20 -15
-37 -25 -39 -23 -2 2 -6 124 -10 270 l-7 267 41 47 c23 26 47 53 53 60 7 7 66
70 132 140 l120 127 12 -42 13 -43 -69 -86z m9005 134 c4 -9 1 -29 -6 -45 -13
-31 -25 -34 -83 -21 l-29 6 22 28 c34 43 86 60 96 32z m-573 -82 c31 -25 55
-48 52 -53 -9 -15 -77 -30 -135 -30 -30 0 -50 4 -43 8 17 11 43 76 43 107 0
30 1 30 83 -32z m-745 27 c72 -12 156 -39 327 -105 66 -25 126 -48 134 -51 19
-6 -61 -56 -130 -80 -36 -13 -82 -19 -139 -19 -106 0 -173 28 -252 106 -46 46
-108 128 -108 143 0 15 91 18 168 6z m-6508 -75 c9 -11 -2 -43 -57 -167 -38
-84 -87 -195 -108 -246 -28 -66 -44 -92 -55 -89 -11 2 -14 13 -12 42 4 65 -4
85 -37 85 -52 0 -266 -41 -277 -53 -15 -15 -74 -173 -154 -412 l-63 -190 75
-115 c108 -166 122 -174 168 -100 20 33 27 37 43 28 11 -5 17 -17 14 -26 -3
-10 -25 -87 -50 -172 -25 -85 -53 -185 -62 -222 -16 -60 -20 -66 -36 -57 -14
7 -19 21 -19 55 0 39 -29 119 -49 134 -16 12 -292 438 -337 520 -10 19 -23 40
-29 46 -5 6 -19 28 -30 50 -11 21 -23 41 -26 44 -4 3 -16 23 -27 45 -11 22
-44 78 -72 125 -60 99 -60 85 5 266 78 220 60 198 183 223 59 13 125 26 147
31 40 9 61 13 165 31 112 19 339 50 473 64 145 16 170 23 187 55 13 24 23 25
40 5z m7742 -14 c67 -19 123 -53 165 -101 l22 -25 -38 -12 c-53 -15 -81 -31
-81 -46 0 -9 41 -12 158 -13 147 -1 288 -16 417 -45 137 -31 344 -114 452
-180 29 -18 39 -19 89 -10 32 6 71 11 88 11 113 0 196 -82 196 -191 0 -40 -36
-147 -70 -208 -16 -30 -30 -58 -30 -62 0 -4 15 -11 33 -14 27 -6 142 -67 157
-84 3 -3 30 -26 60 -51 30 -24 82 -70 115 -101 318 -299 498 -411 665 -413 67
-1 84 3 153 36 81 39 79 38 311 276 44 45 83 82 88 82 5 0 0 -17 -11 -37 -29
-54 -60 -138 -72 -197 -39 -183 -235 -312 -446 -293 -121 12 -215 61 -498 261
-215 152 -384 250 -484 280 -59 17 -131 21 -131 7 0 -5 9 -30 21 -56 41 -92
12 -206 -77 -303 l-43 -47 -1 72 c0 84 -6 103 -30 103 -39 0 -88 -78 -145
-226 -12 -33 -38 -87 -56 -120 -34 -61 -129 -197 -134 -192 -1 2 4 37 11 78 7
41 19 136 25 210 13 156 7 190 -37 190 -48 0 -95 -30 -114 -74 -10 -23 -35
-59 -54 -81 l-35 -40 -1 38 c0 20 -2 37 -4 37 -2 0 -23 -9 -47 -19 -48 -22
-46 -18 -124 -236 -52 -145 -86 -215 -220 -450 -135 -236 -177 -297 -259 -373
-104 -99 -202 -127 -471 -136 -357 -13 -536 -40 -653 -99 -104 -51 -142 -111
-142 -221 0 -59 3 -69 33 -102 44 -51 105 -76 207 -84 l85 -6 -50 -24 c-76
-36 -150 -38 -212 -6 -63 31 -117 93 -143 163 -33 88 -24 144 36 222 41 53 90
89 171 125 94 40 193 55 442 66 316 13 382 24 516 85 76 35 171 118 222 195
83 124 132 289 168 565 9 66 22 143 30 172 23 81 17 91 -32 53 -14 -11 -30
-20 -35 -20 -11 0 0 62 19 107 24 59 20 63 -54 63 -73 0 -145 27 -163 61 -10
18 -11 18 -58 0 -26 -11 -69 -32 -97 -47 l-50 -28 29 39 c47 65 168 178 219
205 50 26 59 45 28 55 -39 12 -284 24 -496 25 -368 0 -867 -26 -1090 -56 -27
-4 -48 -4 -45 -1 3 3 158 49 345 102 187 53 351 100 365 105 14 4 58 18 98 29
47 14 72 27 72 36 0 19 -32 19 -170 0 -164 -22 -167 -20 -50 39 106 54 138 86
85 86 -14 0 -137 -22 -273 -49 -280 -56 -396 -74 -436 -69 -24 3 -19 7 40 32
38 16 96 42 129 57 147 67 228 101 275 115 27 8 50 19 50 23 0 5 -28 12 -61
16 -34 4 -112 25 -173 47 -210 75 -326 106 -428 115 -43 3 -78 9 -78 14 0 4
32 16 70 25 52 14 70 23 68 34 -5 23 -123 78 -187 85 -89 10 -255 -30 -419
-101 -18 -8 -34 -14 -36 -14 -1 0 -1 14 2 30 l4 30 -138 -6 c-125 -6 -147 -4
-224 16 -47 13 -114 37 -150 53 l-65 31 165 7 c165 6 288 30 439 84 72 25 169
45 221 45 113 0 299 -56 566 -170 192 -83 284 -115 284 -100 0 15 -49 43 -210
122 -198 97 -266 128 -288 128 -9 1 -30 7 -46 13 l-30 13 67 18 c52 14 91 17
174 14 103 -5 114 -7 243 -60 152 -61 199 -75 285 -86 58 -7 60 -8 72 -45 23
-68 91 -152 110 -134 2 2 -4 23 -12 47 -34 98 -10 180 78 263 81 76 224 137
325 137 23 0 42 3 42 8 0 13 65 45 130 63 86 24 189 24 272 0z m-7798 -704
c31 -41 28 -144 -6 -217 -43 -93 -101 -135 -154 -111 -32 14 -44 49 -43 124 1
164 134 297 203 204z m6641 -642 c6 -1 28 -36 48 -76 78 -152 176 -296 272
-398 53 -58 159 -141 179 -141 13 0 20 17 78 179 22 63 50 162 62 220 l23 106
41 -125 c45 -135 82 -292 82 -352 0 -34 3 -38 26 -38 36 0 120 26 174 54 97
49 117 134 76 324 -5 21 -3 21 40 -10 66 -47 121 -115 140 -172 17 -52 16
-116 -6 -212 -10 -46 -14 -52 -42 -58 -51 -10 -129 -62 -213 -142 -83 -79
-159 -124 -210 -124 -16 0 -58 13 -92 30 -35 16 -63 26 -63 23 0 -19 49 -73
94 -103 47 -32 57 -35 127 -35 67 0 80 3 112 28 20 15 64 64 98 108 41 54 73
86 96 96 19 8 37 12 40 9 7 -7 -71 -169 -114 -233 -43 -66 -123 -148 -167
-170 -62 -32 -175 -64 -291 -83 -131 -21 -482 -50 -612 -50 -267 0 -488 -89
-695 -280 -75 -68 -80 -65 -52 31 37 122 99 217 196 295 117 94 253 156 413
185 81 15 85 17 85 29 0 25 -220 77 -360 86 -89 5 -216 -9 -275 -32 -51 -19
70 63 150 101 142 68 222 86 423 92 l173 6 -22 23 c-48 51 -226 123 -343 139
-43 6 -46 8 -30 20 39 27 145 65 235 85 95 20 139 46 139 80 0 27 -37 62 -72
69 -30 6 -33 10 -30 40 6 52 -17 118 -46 137 -16 11 -54 19 -99 22 -40 3 -73
6 -73 8 0 2 14 23 30 46 35 47 41 118 14 156 l-16 23 124 -6 c68 -4 128 -8
133 -10z m-8081 -121 c12 -4 16 -20 16 -56 0 -27 7 -63 16 -81 31 -60 321
-432 477 -612 94 -107 166 -190 200 -228 23 -26 27 -38 22 -62 -3 -16 -17
-101 -30 -189 -13 -87 -25 -160 -27 -161 -2 -1 -46 -24 -98 -50 -317 -158
-776 -436 -834 -506 -14 -16 -30 -48 -36 -70 -8 -29 -16 -39 -28 -37 -20 4
-20 16 14 345 28 280 38 361 47 369 13 13 27 -10 27 -45 0 -23 8 -48 18 -61
l18 -23 145 79 c146 80 323 170 482 245 l88 41 -58 67 c-32 36 -60 68 -63 71
-3 3 -30 34 -60 70 -30 36 -63 74 -74 85 -10 11 -66 79 -124 150 -131 161
-162 195 -181 195 -21 0 -51 -30 -51 -52 0 -19 -26 -36 -37 -24 -4 3 1 43 10
89 22 105 101 457 104 457 1 0 8 -3 17 -6z m16346 -104 c24 -12 73 -50 107
-83 143 -137 252 -351 313 -612 47 -206 55 -282 55 -535 0 -258 -9 -335 -56
-486 l-20 -66 -54 86 c-30 47 -72 113 -95 146 -40 58 -42 65 -34 108 4 26 6
51 5 56 -1 5 12 -4 30 -18 17 -15 36 -25 42 -23 19 6 48 53 57 93 13 54 12
276 -1 370 -43 314 -179 550 -344 600 -228 68 -401 -232 -394 -686 2 -127 26
-360 39 -374 10 -10 246 28 307 50 45 16 48 21 58 88 6 35 12 46 25 46 13 0
20 -10 24 -37 9 -55 44 -365 51 -453 3 -41 8 -91 11 -111 4 -30 2 -37 -15 -42
-17 -4 -23 3 -36 43 -9 27 -23 51 -31 54 -26 10 -102 7 -228 -10 -140 -18
-156 -29 -156 -100 0 -36 -3 -44 -19 -44 -11 0 -21 9 -24 23 -9 37 -66 431
-88 612 -26 218 -36 609 -20 754 34 292 134 496 273 562 57 26 154 22 218 -11z
m-10715 -28 c55 -11 140 -25 189 -32 l89 -12 -70 -37 c-38 -20 -92 -53 -120
-74 -103 -75 -226 -225 -291 -353 -19 -37 -112 -364 -112 -392 0 -22 18 -13
152 76 234 155 272 179 343 216 38 20 71 36 73 36 6 0 0 -18 -38 -120 -85
-233 -133 -506 -133 -765 0 -433 120 -774 360 -1026 99 -104 193 -174 313
-232 113 -55 160 -68 160 -43 0 9 -6 29 -14 44 -8 15 -27 66 -43 112 -24 72
-28 101 -28 192 0 104 1 107 31 145 34 42 81 61 154 62 112 2 233 -58 411
-203 61 -50 124 -100 139 -111 15 -11 52 -38 81 -61 155 -116 288 -173 427
-181 107 -7 105 -10 41 67 -88 105 -90 211 -7 273 73 53 225 97 339 97 137 0
382 -53 579 -126 144 -54 354 -160 415 -211 6 -5 33 -24 60 -43 28 -18 75 -53
105 -77 30 -24 68 -54 84 -66 15 -12 34 -27 41 -34 27 -26 247 -183 256 -183
11 0 11 18 -1 98 -18 125 20 241 97 292 33 23 46 25 132 24 80 0 113 -6 196
-33 306 -100 582 -300 740 -538 114 -171 159 -317 159 -523 1 -338 -142 -641
-392 -831 -84 -63 -234 -139 -352 -177 -146 -47 -151 -47 -212 -14 -29 16 -80
37 -114 46 -33 9 -103 34 -155 56 -107 46 -229 70 -358 70 -143 0 -255 -40
-393 -142 -40 -30 -78 -57 -85 -61 -20 -12 -185 39 -251 77 -87 52 -155 80
-237 101 -75 18 -135 43 -135 55 0 4 21 3 48 -3 26 -6 164 -11 307 -11 285 -1
381 9 612 65 538 129 987 404 1104 676 77 180 -12 434 -227 647 -65 65 -125
108 -173 124 -65 22 -67 -11 -11 -132 52 -111 84 -196 120 -320 34 -117 62
-247 55 -254 -3 -3 -5 -1 -5 5 0 18 -69 113 -150 208 -97 112 -193 200 -375
341 -267 206 -730 426 -1031 489 -116 25 -259 25 -308 0 -58 -29 -80 -65 -80
-128 0 -118 127 -227 399 -342 l60 -26 -130 5 c-202 8 -541 74 -717 140 -83
32 -312 147 -518 262 -229 127 -279 147 -372 148 -74 1 -79 0 -109 -31 -27
-26 -33 -41 -37 -86 -4 -48 0 -63 28 -116 58 -108 258 -281 473 -409 l79 -47
-58 -3 c-97 -5 -300 16 -454 48 -414 84 -762 270 -1043 555 -100 102 -225 255
-257 315 -7 14 -16 27 -20 30 -16 13 -120 214 -173 336 -149 344 -209 799
-158 1194 40 308 130 569 283 823 60 101 37 95 213 59z m1385 -108 c-28 -245
5 -492 85 -642 l34 -64 -91 -101 c-50 -56 -123 -138 -162 -181 -76 -85 -116
-135 -116 -147 0 -17 35 0 373 175 122 63 151 75 167 66 25 -13 25 -21 2 -51
-114 -150 -151 -292 -131 -506 10 -115 14 -133 29 -133 10 0 73 46 142 103
178 148 305 241 360 265 26 11 27 10 18 -12 -31 -81 -18 -212 30 -305 34 -67
126 -158 193 -191 170 -84 338 -38 542 147 60 54 129 116 154 138 25 22 61 55
79 73 27 27 39 32 65 28 18 -3 136 -19 262 -36 127 -17 302 -42 390 -56 88
-13 178 -26 200 -30 92 -13 379 -68 500 -96 425 -99 747 -218 1025 -381 568
-333 902 -844 1012 -1552 29 -186 31 -523 5 -695 -33 -215 -101 -454 -182
-635 -38 -85 -134 -274 -155 -305 -10 -14 -47 -70 -82 -125 -154 -237 -429
-540 -668 -735 -30 -25 -57 -47 -60 -50 -13 -14 -243 -181 -310 -225 -327
-213 -662 -376 -1005 -490 -448 -149 -1150 -264 -1680 -277 l-130 -3 -7 88
c-15 180 -81 355 -157 418 -54 45 -127 76 -221 94 -47 9 -118 22 -159 30 -84
16 -166 53 -166 75 0 18 65 44 272 111 177 56 271 104 312 159 51 69 117 125
170 144 71 25 141 18 316 -32 288 -83 522 -122 727 -122 64 0 139 5 167 11 27
6 168 11 313 13 l263 2 100 33 c349 116 478 282 476 614 0 113 1 118 22 126
32 13 231 154 301 214 115 99 179 166 299 317 7 8 40 60 74 115 109 177 180
387 208 615 19 159 19 272 -1 407 -93 630 -602 1037 -1569 1258 -131 30 -433
83 -565 99 -25 3 -63 8 -85 11 -1259 161 -1699 243 -2077 389 -75 28 -171 77
-176 89 -2 4 -8 7 -13 7 -19 0 -118 71 -186 135 -237 218 -342 548 -331 1036
3 113 9 213 15 223 5 10 66 37 149 65 152 53 281 110 377 167 59 36 217 163
246 198 8 9 16 15 18 13 2 -2 -1 -44 -7 -93z m1330 -1270 c58 -9 112 -19 120
-21 17 -5 -178 -108 -219 -116 -38 -8 -124 11 -138 29 -22 29 3 70 60 99 61
30 47 29 177 9z m4655 -1900 c52 -16 115 -42 115 -49 0 -2 -40 -25 -90 -51
-109 -57 -194 -130 -210 -180 -19 -58 -8 -133 33 -218 21 -41 42 -88 48 -103
10 -24 38 -195 39 -230 0 -28 20 -10 40 35 11 26 33 63 49 82 77 98 89 125
115 247 27 134 48 182 98 231 74 71 242 96 362 53 81 -28 103 -45 108 -80 4
-29 1 -33 -46 -55 -68 -33 -96 -60 -152 -148 -25 -40 -68 -96 -94 -124 -58
-62 -75 -93 -89 -166 -12 -69 -40 -128 -89 -192 -91 -118 -102 -138 -102 -175
0 -43 20 -75 61 -96 27 -15 31 -14 62 7 45 31 151 151 234 263 73 100 127 143
190 151 21 3 60 15 87 26 58 23 98 21 173 -12 l51 -22 -41 -36 c-71 -64 -95
-95 -137 -174 -22 -42 -68 -108 -103 -145 -127 -139 -237 -278 -237 -298 0
-13 -81 -113 -131 -161 -52 -50 -168 -134 -184 -134 -27 0 -80 -60 -110 -124
-18 -39 -54 -115 -79 -170 -25 -54 -81 -155 -125 -225 -88 -141 -131 -234
-131 -285 0 -30 9 -41 83 -104 91 -78 163 -150 156 -155 -2 -3 -40 -16 -84
-30 -188 -60 -332 -74 -392 -37 -52 32 -73 85 -73 188 0 144 60 335 153 489
20 32 45 87 57 122 19 59 86 171 110 186 16 10 12 35 -5 35 -50 0 -137 -77
-238 -212 -31 -42 -63 -83 -70 -90 -7 -7 -26 -31 -44 -53 -259 -332 -712 -610
-1040 -639 -29 -2 -57 -7 -62 -11 -6 -3 -30 -36 -55 -73 -93 -142 -227 -270
-361 -341 -32 -18 -72 -42 -87 -52 l-28 -20 0 43 c0 67 9 84 53 115 60 40 239
166 257 180 8 7 44 36 80 64 95 75 210 180 330 299 293 293 505 604 675 990
26 57 55 104 92 143 59 64 67 96 32 133 -19 21 -20 24 -5 75 21 72 66 334 66
381 0 21 4 38 8 38 4 0 47 -20 95 -45 48 -25 90 -45 92 -45 2 0 1 46 -2 103
-4 80 -2 116 12 167 30 108 30 140 0 211 -18 42 -29 90 -32 139 -4 65 -2 82
20 130 58 129 198 236 332 253 42 5 101 -2 160 -19z m-12010 -618 c51 -139
191 -483 248 -609 l36 -77 -59 -30 c-44 -22 -60 -26 -68 -17 -18 24 -21 46 -6
57 8 7 14 27 14 46 0 37 -69 214 -86 221 -10 4 -480 -210 -497 -227 -5 -4 -9
-22 -10 -41 -3 -55 -22 -43 -55 33 -82 194 -100 243 -88 250 6 5 17 -1 25 -12
8 -11 25 -20 40 -20 23 0 485 192 504 209 8 8 -36 128 -73 201 -14 28 -28 40
-50 45 -28 6 -50 35 -50 63 0 10 113 49 122 43 4 -3 28 -64 53 -135z m14682
43 c47 -17 83 -60 100 -118 28 -98 7 -332 -52 -563 -6 -24 -3 -29 44 -52 62
-32 95 -33 115 -4 11 15 19 19 26 12 12 -12 -119 -314 -137 -314 -8 0 -13 14
-13 35 0 29 -6 38 -37 58 -72 45 -461 237 -481 237 -11 0 -28 -7 -37 -16 -25
-25 -37 -4 -19 31 9 17 49 109 91 205 135 316 146 339 192 397 47 59 115 103
157 103 13 0 35 -5 51 -11z m-7733 -667 c14 -37 40 -91 56 -119 44 -76 66 -71
101 22 l11 30 27 -32 c34 -41 109 -75 236 -109 135 -35 182 -57 302 -136 156
-103 202 -117 276 -79 30 15 45 17 70 10 82 -23 181 -3 309 63 66 34 87 41
141 41 70 1 130 -22 180 -69 26 -23 34 -26 77 -20 95 13 200 -27 280 -106 89
-88 170 -292 170 -431 0 -70 -26 -131 -76 -177 -41 -38 -153 -100 -180 -100
-6 0 -19 -9 -30 -21 -31 -34 -73 -51 -128 -51 -89 0 -211 54 -222 98 -8 32 12
79 42 98 12 9 28 33 33 53 15 51 14 174 -1 246 -11 50 -10 65 4 105 10 25 15
48 12 51 -8 8 -58 -35 -92 -80 -37 -47 -37 -41 -16 -240 5 -54 4 -57 -26 -80
-80 -62 -102 -85 -131 -139 -40 -76 -73 -106 -143 -131 -77 -27 -241 -40 -347
-29 -93 10 -128 19 -180 45 -109 56 -93 98 73 190 76 42 118 89 118 131 0 29
-19 31 -51 5 -20 -15 -49 -19 -169 -24 -158 -7 -203 -17 -251 -56 -26 -22 -32
-36 -36 -78 l-5 -51 -102 -4 c-124 -6 -159 -18 -441 -148 -46 -22 -144 -40
-213 -40 -54 0 -73 -3 -70 -12 7 -21 117 -38 224 -36 l101 3 -68 -68 c-38 -38
-69 -72 -69 -77 0 -18 -101 -68 -210 -105 -279 -93 -366 -136 -398 -195 -18
-34 -9 -102 18 -140 46 -64 131 -100 310 -130 63 -11 138 -27 167 -36 95 -30
157 -110 181 -234 21 -104 33 -243 27 -304 -8 -74 -32 -166 -45 -166 -4 0 -14
17 -21 38 -25 76 -128 278 -156 305 -17 16 -79 46 -148 72 -65 25 -159 65
-208 90 -50 25 -96 45 -104 45 -33 0 -2 -163 50 -267 15 -28 50 -80 79 -115
159 -190 190 -285 132 -401 -27 -52 -189 -227 -211 -227 -8 0 -13 49 -16 158
-2 86 -9 173 -16 193 -10 31 -36 69 -138 193 -77 95 -172 235 -201 296 -46 98
-57 110 -101 110 -30 0 -40 -5 -54 -29 -34 -58 -16 -190 43 -321 81 -179 78
-304 -10 -365 -101 -70 -276 -57 -385 28 -87 69 -89 71 -48 82 15 3 46 18 69
31 73 43 78 95 33 359 -16 97 -20 155 -18 310 3 211 0 227 -56 251 -44 18 -79
18 -115 -1 -42 -22 -49 -40 -59 -162 -11 -120 -26 -165 -68 -205 -45 -43 -78
-51 -133 -33 -49 16 -165 106 -239 185 -73 78 -184 210 -179 215 2 2 26 -2 53
-10 66 -20 203 -30 237 -16 38 15 54 52 68 166 18 153 36 185 140 255 95 64
148 119 181 187 17 35 22 72 29 191 7 135 10 153 39 217 18 39 48 87 69 108
33 34 37 43 40 105 3 54 -1 83 -23 146 -28 82 -77 174 -120 224 -14 17 -25 32
-25 35 0 8 154 -31 230 -59 184 -68 293 -164 324 -288 19 -71 6 -107 -86 -243
-82 -122 -104 -181 -96 -263 5 -49 16 -68 55 -88 33 -18 62 -14 109 13 44 26
89 81 234 285 41 58 105 137 142 176 60 63 78 75 160 109 123 50 172 82 197
126 22 39 27 92 12 131 -16 42 -90 104 -174 146 -45 23 -94 52 -109 64 -28 25
-88 106 -88 119 0 5 22 -7 50 -27 64 -46 139 -84 167 -84 25 0 53 24 53 46 0
30 -41 95 -100 157 -33 36 -60 68 -60 71 0 11 92 -5 124 -21 15 -8 57 -41 92
-74 96 -89 129 -74 76 34 -32 65 -34 80 -5 55 10 -8 38 -26 63 -39 25 -13 53
-30 62 -37 24 -20 64 -8 72 20 3 13 6 40 6 62 l0 38 71 -86 c40 -47 75 -86 80
-86 18 0 29 43 35 139 4 55 10 98 15 96 4 -3 19 -35 33 -73z m7177 -309 c27
-14 49 -33 49 -40 0 -30 -21 -53 -49 -53 -16 0 -34 -7 -41 -15 -15 -18 -170
-297 -170 -306 0 -4 -7 -12 -15 -19 -30 -25 -16 -49 52 -95 37 -25 72 -45 78
-45 11 0 105 161 143 243 24 54 28 82 12 92 -10 6 14 65 26 65 5 0 124 -68
132 -75 10 -9 -26 -56 -49 -64 -31 -11 -50 -39 -139 -199 -46 -82 -57 -109
-47 -118 22 -19 228 -146 231 -143 9 9 147 262 185 336 43 86 48 116 30 156
-8 19 -8 31 3 51 l14 26 61 -31 60 -32 -75 -146 c-63 -124 -119 -223 -281
-505 -69 -120 -100 -146 -93 -80 4 41 -1 46 -214 191 -278 188 -262 180 -296
160 -17 -10 -33 -15 -38 -12 -7 4 91 179 120 212 5 7 10 14 10 17 0 2 28 55
63 118 35 62 90 164 122 226 33 61 61 112 63 112 2 0 26 -12 53 -27z m-13509
-65 c46 -29 97 -63 113 -75 l30 -21 3 -136 c3 -131 3 -136 -17 -136 -21 0 -33
40 -47 165 -7 65 -11 69 -119 160 -46 38 -59 55 -57 73 2 12 5 22 7 22 2 0 41
-24 87 -52z m13296 -24 c2 -13 -10 -29 -37 -49 -22 -17 -41 -33 -41 -37 0 -5
-4 -8 -9 -8 -5 0 -25 -15 -44 -33 -34 -31 -37 -39 -52 -135 -8 -56 -15 -106
-15 -112 0 -5 -12 -10 -26 -10 l-25 0 7 133 c3 72 10 136 15 141 17 19 204
134 214 132 6 -1 11 -11 13 -22z m-14172 -35 c27 -26 139 -36 513 -47 l245 -7
45 -86 45 -86 -101 -199 c-171 -337 -234 -482 -227 -520 5 -27 3 -34 -9 -34
-17 0 -194 286 -183 297 4 4 20 -1 36 -11 17 -9 34 -15 39 -11 9 5 101 188
101 199 0 3 -41 78 -90 169 l-91 164 -89 7 c-112 8 -133 0 -128 -51 6 -73 -21
-45 -85 89 -36 73 -63 136 -60 141 7 11 15 8 39 -14z m125 -493 c60 -41 97
-149 64 -190 -17 -23 -66 -26 -91 -5 -29 24 -63 86 -70 128 -5 34 -3 43 19 65
32 32 34 32 78 2z m14783 -58 c9 -12 16 -34 16 -48 -1 -65 -75 -160 -125 -160
-28 0 -55 34 -55 70 1 36 33 103 64 131 35 33 80 36 100 7z m-1021 -136 c-2
-15 0 -32 4 -38 7 -10 157 -124 288 -219 28 -19 74 -54 104 -75 55 -40 97 -50
119 -28 17 17 27 2 15 -24 -24 -52 -165 -248 -174 -242 -5 3 -7 20 -3 38 7 39
10 37 -266 251 -173 134 -176 136 -217 131 -28 -4 -43 -2 -43 6 0 6 27 48 60
95 33 46 60 86 60 89 0 3 8 16 17 28 23 30 40 23 36 -12z m-12657 -142 l71
-105 12 -270 c7 -148 15 -273 19 -277 7 -6 33 15 145 118 42 38 48 49 45 76
-5 48 13 41 68 -27 27 -33 59 -71 71 -84 28 -31 20 -43 -22 -35 -37 7 -44 1
-265 -205 -63 -59 -132 -123 -154 -141 -34 -31 -38 -38 -33 -72 6 -44 -8 -59
-29 -30 -8 12 -20 27 -27 34 -33 34 -117 140 -117 148 0 14 18 21 25 10 15
-25 62 -9 113 38 l51 47 -14 145 c-8 80 -17 222 -21 317 -4 94 -10 177 -14
184 -5 7 -63 -32 -171 -115 -233 -181 -231 -179 -227 -217 2 -18 -2 -34 -8
-36 -14 -5 -30 14 -97 115 -58 87 -66 125 -21 95 19 -12 30 -13 49 -5 30 14
426 309 443 330 7 10 11 30 9 45 -7 53 26 25 99 -83z m6574 -41 c46 -18 105
-44 130 -59 96 -57 240 -89 395 -90 84 0 298 23 351 39 20 6 55 4 105 -6 148
-29 370 -1 532 67 70 30 71 30 42 6 -45 -38 -165 -93 -268 -123 -89 -26 -101
-27 -332 -28 -132 -1 -280 -6 -330 -13 -193 -25 -512 25 -895 140 -36 11 -100
22 -142 25 l-78 6 53 24 c137 64 292 68 437 12z m5842 -171 c3 -42 6 -45 153
-166 83 -67 166 -136 185 -152 95 -79 123 -93 147 -69 16 16 48 3 33 -13 -6
-7 -47 -62 -92 -123 -44 -60 -82 -112 -84 -114 -2 -2 -10 -1 -18 2 -12 5 -14
12 -8 29 5 13 7 31 5 40 -3 10 -52 59 -111 109 l-107 92 -32 -39 c-17 -21 -79
-97 -137 -167 -58 -71 -106 -132 -106 -136 0 -8 83 -92 160 -161 39 -35 50
-40 78 -35 18 3 37 3 43 0 5 -4 -22 -43 -62 -88 -136 -154 -156 -168 -143
-100 6 34 2 39 -197 239 -202 203 -204 205 -240 200 -20 -3 -39 -3 -42 0 -5 6
43 64 165 199 29 31 32 28 28 -28 -1 -23 12 -42 67 -98 38 -38 75 -69 81 -69
17 0 272 307 272 328 0 14 -123 120 -152 131 -15 5 -30 6 -39 0 -19 -12 -29
-11 -29 3 0 14 161 228 172 228 4 0 8 -19 10 -42z m-11292 -1085 c36 -33 101
-91 145 -129 157 -135 145 -120 117 -150 -10 -11 -27 -32 -36 -47 -21 -30 -31
-33 -51 -13 -9 9 -12 26 -9 48 6 33 2 39 -67 106 -41 40 -81 72 -89 72 -8 0
-25 -15 -37 -33 -13 -17 -55 -70 -94 -117 -232 -278 -234 -281 -218 -339 7
-25 -16 -21 -49 9 -101 88 -183 171 -178 179 3 5 23 7 44 4 43 -6 12 -36 271
266 l132 154 -57 58 c-73 74 -117 98 -145 81 -22 -14 -34 -10 -48 17 -8 14 -1
27 35 66 l45 48 112 -110 c62 -60 141 -137 177 -170z m10662 181 c-4 -77 -13
-128 -26 -136 -22 -15 -36 -8 -36 17 0 25 -10 33 -47 40 -29 4 -132 -55 -181
-105 -68 -69 -102 -148 -102 -238 0 -40 6 -87 13 -105 51 -122 195 -176 345
-132 56 17 180 96 226 144 l30 31 -26 28 c-144 156 -152 164 -181 159 -59 -8
-48 17 53 117 96 96 130 114 109 59 -12 -31 -6 -41 90 -143 39 -41 71 -78 71
-82 0 -13 45 -9 58 4 9 9 15 9 24 0 12 -12 -32 -69 -147 -190 -170 -180 -403
-297 -555 -279 -101 12 -178 61 -228 147 -25 41 -27 54 -26 145 0 115 19 175
85 274 88 133 243 248 382 286 28 7 56 12 62 11 5 -1 8 -25 7 -52z m-6392
-199 l65 -24 -49 0 c-47 -1 -86 18 -86 41 0 10 -5 12 70 -17z m-3490 -343 l54
-7 48 -110 c26 -60 48 -115 48 -122 0 -7 -9 -13 -20 -13 -14 0 -32 22 -64 78
-25 42 -49 83 -53 89 -4 7 -51 20 -103 29 -52 9 -96 17 -96 17 -1 1 -5 12 -8
25 -7 21 -6 22 66 21 40 -1 98 -4 128 -7z m9093 2 c3 -4 2 -15 -4 -26 -6 -10
-7 -27 -4 -38 5 -17 116 -178 160 -235 9 -11 40 -53 68 -94 87 -124 115 -151
149 -148 17 1 32 -2 34 -8 6 -16 -188 -157 -200 -145 -7 7 -6 14 2 22 21 21
13 52 -25 111 l-38 56 -250 5 c-137 3 -276 9 -307 12 -39 4 -58 3 -58 -4 0
-12 234 -398 258 -425 10 -11 25 -17 39 -14 13 2 27 -1 32 -7 7 -8 -19 -31
-84 -74 -52 -34 -101 -62 -110 -62 -17 0 -20 16 -5 25 22 14 8 68 -41 152
-197 341 -235 398 -265 401 -16 2 -33 7 -38 12 -4 4 40 41 99 80 l108 72 56
-6 c87 -10 451 -20 451 -12 0 10 -33 60 -45 68 -5 4 -7 8 -2 8 4 0 -1 8 -10
18 -10 10 -33 39 -50 65 -28 41 -37 47 -68 47 -24 0 -35 5 -35 15 0 8 3 15 8
15 4 0 41 27 82 60 76 61 82 65 93 54z m-9127 -242 c11 -6 10 -46 -6 -212 -11
-113 -24 -279 -29 -370 -8 -142 -7 -170 6 -198 9 -19 12 -37 7 -42 -12 -11
-264 155 -264 173 0 10 12 14 37 13 l38 -1 7 50 c3 28 7 80 7 117 1 60 -1 69
-22 80 -13 7 -69 47 -126 88 -56 41 -109 79 -116 84 -14 10 -144 -51 -180 -85
-18 -18 -18 -20 -3 -47 9 -15 13 -33 9 -40 -10 -16 -214 143 -208 161 2 7 18
11 38 9 35 -3 101 24 282 114 48 24 87 41 87 38 0 -3 12 3 28 14 15 11 63 37
107 59 44 22 100 51 124 65 l45 25 60 -44 c33 -24 65 -47 72 -51z m627 -397
c97 -55 107 -62 102 -85 -9 -53 -27 -321 -22 -327 7 -6 108 77 199 163 31 30
63 54 71 54 8 0 67 -25 131 -56 117 -56 145 -84 86 -84 -22 0 -33 -6 -39 -22
-15 -41 -131 -535 -131 -561 0 -13 7 -30 15 -37 19 -15 19 -29 2 -36 -22 -8
-256 106 -250 122 3 8 16 14 29 14 13 0 30 10 38 23 12 18 136 466 136 490 0
11 -18 8 -32 -6 -31 -31 -294 -264 -306 -271 -8 -5 -33 1 -63 15 -43 21 -49
28 -49 54 0 37 28 344 36 404 5 29 3 42 -4 40 -17 -6 -332 -416 -332 -432 0
-8 7 -20 15 -27 12 -10 13 -16 4 -27 -10 -11 -14 -11 -29 2 -9 8 -20 15 -24
15 -5 0 -27 12 -50 28 -22 15 -58 36 -78 47 -43 22 -36 44 10 37 32 -4 22 -16
261 276 153 186 160 196 143 222 -17 28 -15 41 6 32 10 -4 66 -34 125 -67z
m7317 -140 c0 -8 -5 -15 -11 -15 -27 0 6 -90 119 -321 118 -243 133 -266 173
-257 7 2 14 -4 16 -12 2 -10 -27 -30 -92 -62 -87 -44 -125 -57 -125 -43 0 4 7
19 15 35 15 28 14 34 -13 97 l-29 68 -109 22 c-160 33 -329 72 -412 95 -40 12
-75 19 -77 16 -3 -3 -1 -16 4 -29 6 -13 47 -116 91 -229 45 -113 86 -210 91
-216 5 -6 23 -14 40 -18 18 -3 29 -11 27 -18 -6 -18 -211 -98 -222 -87 -6 5
-3 16 7 27 26 28 21 55 -29 187 -25 66 -64 167 -85 225 -65 173 -70 181 -100
187 -47 9 -41 28 14 48 29 10 81 31 116 47 l64 29 86 -25 c98 -28 317 -81 375
-92 46 -8 47 -20 -19 123 -45 97 -68 123 -99 114 -5 -1 -13 4 -17 11 -6 9 17
26 84 60 100 51 117 56 117 33z m-1235 -313 c85 -25 99 -32 97 -48 -2 -11 -5
-20 -7 -22 -2 -2 -47 4 -100 13 l-97 17 -32 -29 c-51 -49 -118 -108 -119 -107
-43 16 -42 19 39 117 60 73 84 95 99 93 11 -2 65 -17 120 -34z m299 -150 c9
-29 14 -57 11 -61 -11 -18 -44 -18 -61 0 -22 25 -51 24 -137 -5 -40 -13 -112
-36 -162 -51 -49 -15 -91 -29 -93 -30 -4 -3 46 -176 52 -183 3 -2 63 14 134
37 120 38 162 61 162 90 0 10 50 37 54 29 7 -13 38 -110 42 -131 6 -35 -29
-52 -62 -30 -25 16 -35 14 -195 -34 l-117 -36 25 -91 c13 -50 31 -114 39 -142
l15 -52 47 13 c180 51 319 99 352 124 14 10 26 30 28 45 3 23 32 46 57 46 5 0
48 -131 44 -134 -10 -8 -453 -150 -582 -187 -105 -29 -152 -38 -159 -31 -8 8
-2 18 18 36 l29 24 -59 239 c-81 324 -85 336 -124 348 -63 18 -46 27 143 80
72 20 207 62 300 94 94 32 173 55 176 52 3 -3 14 -30 23 -59z m-812 -184 c3
-7 -6 -21 -19 -33 -14 -12 -59 -105 -112 -234 l-89 -214 14 -76 c22 -117 31
-138 65 -150 30 -10 39 -29 17 -35 -53 -15 -259 -47 -268 -41 -8 5 -4 15 15
32 20 19 25 31 21 51 -3 15 -11 63 -17 107 l-12 80 -166 173 c-91 95 -176 175
-188 178 -38 10 -27 32 20 39 23 3 84 13 135 21 95 16 121 13 89 -10 -9 -7
-17 -22 -17 -32 0 -19 184 -226 205 -232 6 -1 28 32 48 75 56 122 67 153 67
189 0 28 -5 36 -27 45 -40 15 -19 27 93 53 122 29 121 29 126 14z m-3083 -83
c39 -8 98 -28 130 -45 61 -30 171 -123 171 -144 0 -12 -78 -63 -133 -87 -23
-11 -30 -10 -43 3 -13 13 -14 19 -3 35 39 63 -62 151 -186 160 -111 9 -199
-34 -252 -124 -24 -42 -28 -58 -28 -128 0 -64 5 -89 23 -124 54 -101 173 -178
309 -201 79 -13 126 -7 160 20 14 11 32 15 48 12 24 -4 25 -7 19 -56 -10 -84
-2 -80 -122 -73 -274 15 -503 129 -581 290 -43 87 -49 157 -22 240 60 180 272
272 510 222z m2171 -79 c0 -8 -9 -18 -20 -21 -17 -5 -20 -15 -20 -62 0 -79 50
-534 61 -554 5 -10 18 -21 29 -24 25 -8 27 -35 3 -35 -10 0 -49 -5 -88 -10
-177 -22 -380 -32 -444 -20 -123 22 -203 76 -251 170 -50 99 -36 189 55 349
36 62 65 119 65 126 0 8 -10 15 -22 17 -47 7 -28 25 33 32 89 9 219 8 219 -3
0 -4 -18 -21 -40 -36 -92 -64 -170 -221 -170 -340 1 -90 47 -160 132 -200 47
-22 67 -25 170 -25 64 0 119 3 121 8 2 4 -7 131 -20 282 l-23 275 -32 27 c-40
32 -38 33 97 46 149 13 145 13 145 -2z m-3315 -126 c-4 -19 -11 -39 -15 -44
-11 -11 -270 74 -277 90 -2 7 2 27 10 47 l15 34 137 -46 136 -46 -6 -35z
m1793 114 c74 -7 91 -21 50 -39 -26 -12 -33 -34 -42 -146 l-7 -87 33 -6 c18
-3 108 -8 199 -12 l166 -7 6 94 c8 107 3 136 -24 144 -10 4 -19 13 -19 21 0
11 24 14 130 14 76 0 130 -4 130 -10 0 -5 -11 -20 -25 -34 l-25 -25 0 -296 0
-295 25 -12 c14 -6 25 -17 25 -25 0 -10 -30 -13 -140 -13 -150 0 -163 5 -115
45 24 19 25 26 31 166 l7 146 -74 6 c-41 4 -133 9 -205 13 l-131 6 -6 -92
c-12 -169 -10 -218 13 -230 29 -16 25 -40 -7 -40 -15 0 -78 5 -140 11 -84 9
-113 15 -113 26 0 7 11 18 24 23 13 5 26 13 29 17 3 5 18 141 33 302 l28 294
-22 17 c-39 32 -28 43 36 37 31 -4 90 -9 130 -13z"/>
<path d="M11700 19233 c-224 -19 -359 -136 -390 -339 -31 -202 67 -382 248
-453 78 -31 207 -45 294 -32 188 29 305 144 346 341 28 137 -8 261 -103 356
-89 90 -245 140 -395 127z"/>
<path d="M9993 19148 c-131 -21 -133 -21 -133 -47 1 -37 46 -330 52 -337 8 -8
269 34 361 58 141 37 213 106 204 197 -6 54 -31 89 -88 121 -39 22 -58 25
-154 27 -72 1 -156 -5 -242 -19z"/>
<path d="M7177 17958 c-8 -148 -9 -308 -1 -308 3 0 69 38 148 84 78 47 154 90
169 97 15 7 27 15 27 19 0 7 -274 196 -316 218 -21 11 -21 9 -27 -110z"/>
<path d="M15031 15168 c7 -12 29 -45 49 -73 142 -194 314 -467 425 -678 260
-489 392 -909 421 -1329 4 -66 10 -95 18 -92 24 10 86 108 106 170 12 36 24
63 27 61 8 -8 -17 -168 -38 -247 -40 -148 -121 -248 -218 -269 -127 -27 -237
-7 -311 56 -48 42 -51 40 -76 -46 -47 -159 38 -308 203 -356 32 -9 73 -25 93
-35 38 -19 129 -110 150 -149 11 -21 10 -26 -11 -41 -33 -25 -162 -68 -244
-80 -43 -7 -189 -10 -375 -8 -301 3 -306 3 -367 -21 -35 -13 -63 -27 -63 -31
0 -4 17 -11 38 -15 20 -3 100 -22 177 -41 336 -82 546 -60 853 86 l123 59 -22
-39 c-60 -106 -187 -225 -320 -299 -69 -38 -173 -75 -288 -102 -199 -47 -355
-106 -495 -189 -81 -48 -206 -153 -195 -164 3 -3 85 -11 183 -18 285 -19 529
6 716 74 113 41 312 136 399 193 39 24 71 43 71 41 0 -2 -16 -28 -36 -57 -98
-144 -210 -443 -254 -673 -33 -173 -35 -283 -11 -527 12 -119 21 -243 21 -277
0 -33 4 -63 10 -67 5 -3 19 14 31 37 34 68 70 110 279 323 107 110 212 226
234 259 48 72 147 281 211 443 27 68 49 122 50 120 1 -1 -4 -40 -11 -87 -20
-123 -29 -475 -16 -590 27 -230 146 -481 312 -663 28 -31 56 -55 60 -52 5 3
19 47 31 98 21 81 23 117 24 297 0 178 -3 220 -23 315 -25 114 -84 309 -109
358 -14 28 -14 29 9 21 94 -34 159 28 200 192 28 115 30 297 4 434 -51 268
-198 589 -330 721 l-46 47 25 54 c34 75 45 141 45 279 0 143 -12 237 -51 394
-66 265 -153 500 -274 740 -181 357 -417 718 -649 994 -39 46 -79 94 -89 107
-19 25 -37 31 -37 14 0 -5 22 -47 48 -92 209 -356 333 -632 431 -953 65 -213
220 -899 207 -913 -4 -3 -6 1 -6 10 0 8 -25 98 -56 199 -263 873 -480 1254
-1099 1924 -150 163 -188 199 -164 153z"/>
<path d="M17985 15489 c-183 -21 -265 -33 -263 -39 13 -33 244 -368 250 -362
6 6 138 395 138 407 0 6 -36 5 -125 -6z"/>
<path d="M3623 13458 c-101 -23 -183 -45 -183 -50 0 -12 213 -378 220 -378 3
0 30 75 61 168 31 92 68 197 82 235 17 44 22 67 14 66 -7 0 -94 -19 -194 -41z"/>
<path d="M12840 13381 c-104 -22 -178 -58 -235 -115 -103 -103 -95 -252 19
-374 40 -43 168 -128 218 -145 17 -6 107 31 108 45 0 3 -21 14 -47 24 -64 25
-182 103 -216 144 -69 81 -84 159 -46 236 46 96 171 151 388 173 57 6 106 12
110 12 3 1 -12 5 -34 10 -65 13 -174 9 -265 -10z"/>
<path d="M12785 13042 c-56 -12 -62 -69 -12 -116 36 -34 125 -82 134 -72 3 3
-13 26 -36 51 -44 48 -49 62 -26 71 17 7 63 -19 189 -105 96 -65 122 -73 151
-41 22 24 24 22 -48 44 -36 10 -81 36 -120 66 -98 78 -178 113 -232 102z"/>
<path d="M13400 12769 c-14 -6 -35 -20 -48 -32 -20 -18 -35 -22 -96 -22 -62 0
-77 -4 -107 -26 -19 -14 -42 -28 -52 -32 -16 -6 -77 -92 -77 -108 0 -5 16 -1
35 7 49 20 101 18 125 -6 23 -23 27 -108 9 -173 -26 -96 26 -38 99 108 54 107
84 145 134 166 29 12 32 11 54 -15 15 -17 24 -40 24 -62 0 -19 4 -34 9 -34 15
0 31 59 31 114 0 61 -19 92 -66 112 -38 16 -40 16 -74 3z"/>
<path d="M12500 12589 c-30 -5 -85 -16 -122 -25 -59 -14 -68 -19 -68 -39 0
-33 34 -57 90 -63 l49 -4 66 67 c36 37 65 69 65 71 0 5 -11 4 -80 -7z"/>
<path d="M16010 8024 c-25 -14 -79 -58 -121 -97 -41 -40 -95 -87 -118 -105
-63 -51 -92 -103 -187 -342 -37 -92 -39 -100 -25 -100 27 0 365 405 463 554
79 121 77 141 -12 90z"/>
<path d="M15621 7923 c-12 -27 -36 -68 -51 -93 -30 -47 -65 -161 -74 -242 -4
-27 -9 -68 -12 -93 -3 -25 -1 -45 4 -45 15 0 119 219 137 289 15 61 33 231 23
231 -2 0 -14 -21 -27 -47z"/>
<path d="M16350 7759 c-60 -27 -140 -56 -185 -65 -143 -29 -281 -108 -412
-235 -74 -72 -146 -159 -138 -167 2 -3 43 21 90 52 113 76 254 142 344 161 92
19 189 70 277 144 78 66 161 163 137 160 -4 -1 -55 -23 -113 -50z"/>
<path d="M18524 8261 c-50 -31 -90 -88 -133 -192 -23 -54 -41 -103 -41 -108 0
-18 292 -153 301 -139 13 21 33 181 32 268 0 99 -20 153 -64 175 -37 20 -58
19 -95 -4z"/>
<path d="M9640 6151 c-30 -10 -117 -35 -193 -56 -75 -21 -140 -42 -144 -48 -4
-7 2 -8 18 -3 13 4 56 10 94 13 74 5 191 45 260 88 48 29 39 31 -35 6z"/>
<path d="M9736 6005 c-37 -78 -47 -136 -40 -213 11 -110 20 -112 27 -6 4 54
16 137 27 183 11 46 19 86 17 88 -3 2 -16 -21 -31 -52z"/>
<path d="M9872 5993 c28 -102 104 -216 187 -282 22 -18 41 -31 41 -28 0 2 -20
38 -45 80 -25 41 -56 104 -68 139 -20 53 -27 63 -45 60 -15 -2 -28 7 -44 32
-30 46 -39 46 -26 -1z"/>
<path d="M4150 7204 c0 -7 80 -158 113 -212 l20 -34 44 84 c24 46 55 102 69
126 l25 42 -136 0 c-74 0 -135 -3 -135 -6z"/>
<path d="M6570 4554 c-58 -31 -111 -59 -119 -64 -9 -5 18 -30 90 -83 57 -41
106 -74 107 -72 5 5 33 256 30 266 -2 4 -50 -17 -108 -47z"/>
</g>
</svg>
